<svg xmlns="http://www.w3.org/2000/svg" viewBox="0 0 64 64"><defs><style>.cls-1{fill:#d8d9dd;}.cls-2{fill:#281111;}.cls-3{fill:#aeadb3;}.cls-4{fill:#3e2c27;}</style></defs><title>husky dog</title><g id="husky_dog" data-name="husky dog"><path class="cls-1" d="M53,56,32,61,11,56l2.27-22.09A18.81,18.81,0,0,1,28.6,17.31a18.8,18.8,0,0,1,6.8,0,18.81,18.81,0,0,1,15.33,16.6Z"/><circle class="cls-2" cx="24.5" cy="33.5" r="1.5"/><circle class="cls-2" cx="39.5" cy="33.5" r="1.5"/><path class="cls-3" d="M28.6,17.31A18.83,18.83,0,0,0,15.07,27.58c-.05-1-.07-2-.07-3.08C15,12.63,18.13,3,22,3,25.05,3,27.64,9,28.6,17.31Z"/><path class="cls-3" d="M49,24.5c0,1,0,2.07-.07,3.08A18.81,18.81,0,0,0,35.4,17.31C36.36,9,39,3,42,3,45.87,3,49,12.63,49,24.5Z"/><path class="cls-2" d="M28,56h0A4.81,4.81,0,0,1,24,53.72l-2.81-4.49A2.62,2.62,0,0,0,19,48a1,1,0,0,1,0-2,4.58,4.58,0,0,1,3.91,2.17l2.81,4.49A2.82,2.82,0,0,0,28,54a1,1,0,0,1,0,2Z"/><path class="cls-2" d="M32,56a1,1,0,0,1-1-1V51a1,1,0,0,1,2,0v4A1,1,0,0,1,32,56Z"/><path class="cls-2" d="M36,56a1,1,0,0,1,0-2,2.82,2.82,0,0,0,2.31-1.33l2.81-4.49A4.58,4.58,0,0,1,45,46a1,1,0,0,1,0,2,2.62,2.62,0,0,0-2.21,1.23L40,53.72A4.81,4.81,0,0,1,36,56Z"/><path class="cls-3" d="M28.14,56H28a1,1,0,1,1,.14-2h0l.2,0a1,1,0,0,1,.83,1A1,1,0,0,1,28.14,56Z"/><path class="cls-3" d="M36,56h-.14a1,1,0,0,1,0-2,.93.93,0,0,1,.8.21A1,1,0,0,1,37,55h0A1,1,0,0,1,36,56Z"/><path class="cls-2" d="M36,56H28a1,1,0,0,1,0-2h8a1,1,0,0,1,0,2Z"/><path class="cls-4" d="M36,48.33c0,.64-.64,1.23-1.45,1.65a6,6,0,0,1-2.55.69c-1.47,0-4-1.05-4-2.34a2.13,2.13,0,0,1,.79-1.64A2.8,2.8,0,0,1,30.67,46h2.66A2.52,2.52,0,0,1,36,48.33Z"/><path class="cls-2" d="M12.85,39h-.1a1,1,0,0,1-.89-1.09l.42-4.1a19.43,19.43,0,0,1,1.89-6.67A19.9,19.9,0,0,1,40.75,18a1,1,0,0,1-.88,1.8A17.84,17.84,0,0,0,14.26,34l-.42,4.1A1,1,0,0,1,12.85,39Z"/><path class="cls-2" d="M32,62a.85.85,0,0,1-.23,0l-21-5A1,1,0,0,1,10,55.9l1.45-14.08a1,1,0,1,1,2,.2L12.08,55.23,32,60l9.86-2.34a1,1,0,0,1,.46,1.94L32.23,62A.85.85,0,0,1,32,62Z"/><path class="cls-2" d="M50.93,57.49a1,1,0,0,1-1-.77,1,1,0,0,1,.74-1.2l1.22-.29L49.74,34A17.87,17.87,0,0,0,44,22.59c-.28-.25-.57-.5-.88-.73a1,1,0,1,1,1.24-1.58c.33.27.66.54,1,.83a19.8,19.8,0,0,1,6.44,12.7L54,55.9A1,1,0,0,1,53.23,57l-2.07.49Z"/><path class="cls-2" d="M46,58.67a1,1,0,0,1-.23-2l1.07-.25a1,1,0,1,1,.46,1.94l-1.07.25Z"/><path class="cls-2" d="M32,51.67c-1.7,0-5-1.18-5-3.34a3.17,3.17,0,0,1,1.14-2.4A3.79,3.79,0,0,1,30.67,45h2.66A3.52,3.52,0,0,1,37,48.33a3.09,3.09,0,0,1-2,2.54A7,7,0,0,1,32,51.67ZM30.67,47a1.79,1.79,0,0,0-1.21.43,1.16,1.16,0,0,0-.46.9c0,.39,1.67,1.34,3,1.34a5,5,0,0,0,2.08-.57c.72-.38.91-.7.92-.77A1.55,1.55,0,0,0,33.33,47Z"/><path class="cls-2" d="M15.07,28.58l-.2,0a1,1,0,0,1-.8-.93c-.05-1-.07-2-.07-3.13a56.68,56.68,0,0,1,1.36-12.85,1,1,0,0,1,1.94.46,55.21,55.21,0,0,0-1.3,12,19.9,19.9,0,0,1,11.49-7.59C26.42,8.38,23.9,4,22,4c-1.17,0-2.51,1.65-3.58,4.42a1,1,0,0,1-1.86-.72C18.38,3,20.52,2,22,2c4.31,0,6.75,7.85,7.59,15.2a1,1,0,0,1-.81,1.09A17.86,17.86,0,0,0,16,28,1,1,0,0,1,15.07,28.58Z"/><path class="cls-2" d="M48.93,28.58A1,1,0,0,1,48,28,17.68,17.68,0,0,0,44,22.59c-.28-.25-.57-.5-.88-.73a1,1,0,1,1,1.24-1.58c.33.27.66.54,1,.83a19.64,19.64,0,0,1,2.71,3C47.93,12.57,44.8,4,42,4c-1.9,0-4.42,4.38-5.49,12.52A19.64,19.64,0,0,1,40.75,18a1,1,0,0,1-.88,1.8,17.75,17.75,0,0,0-4.65-1.53,1,1,0,0,1-.81-1.09C35.25,9.85,37.69,2,42,2c5.2,0,8,11.59,8,22.5,0,1.15,0,2.17-.07,3.13a1,1,0,0,1-.8.93Z"/></g></svg>